# xmcd
#
# Track frame offsets: 
#        182
#        34520
#        68280
#        96912
#        126647
#        165972
#        203612
#        237407
#        269940
#        308032
#
# Disc length: 4574 seconds
#
# Revision: 0
# Processed by: cddbd v1.5.2PL0 Copyright (c) Steve Scherf et al.
# Submitted via: ExactAudioCopyFreeDBPlugin 1.0
#
DISCID=8511dc0a
DTITLE=Various Artist - The Cream Of The Crop
DYEAR=1900
DGENRE=Northern Soul
TTITLE0=Frances Nero - Footsteps Following Me
TTITLE1=Chuck Jackson - All Over The World
TTITLE2=Johnny Bristol - Man Up In The Sky
TTITLE3=Saundra Edwards - Tell A Fool Goodbye
TTITLE4=Ronnie McNeir - Wholeheartedly
TTITLE5=Susaye Green - Free
TTITLE6=Earl Van Dyke - Detroit City
TTITLE7=David Ruffin - Hurt The One You Love
TTITLE8=The Monitors - Standing Still
TTITLE9=Richard 'Popcorn' Wylie - See This Man In Love
EXTD=
EXTT0=
EXTT1=
EXTT2=
EXTT3=
EXTT4=
EXTT5=
EXTT6=
EXTT7=
EXTT8=
EXTT9=
PLAYORDER=
